# Blender v2.80 (sub 43) OBJ File: '1.blend'
# www.blender.org
mtllib 3.mtl
o Cube.003_Cube.001
v -0.000000 0.055441 1.951524
v -0.000000 0.051612 0.894606
v -0.000000 -0.300694 0.894606
v -0.000000 -0.300694 0.010012
v -0.000000 -0.656829 0.010012
v -0.000000 -0.656829 -0.169970
v -0.000000 -0.304523 -0.169970
v -0.000000 -0.304523 -0.878411
v -0.000000 0.580071 -0.878411
v -0.000000 0.580071 -1.583023
v -0.000000 -1.177629 -1.583023
v -0.000000 -1.177629 1.951524
vt 0.000000 0.000000
vt 0.000000 0.000000
vt 0.000000 0.000000
vt 0.000000 0.000000
vt 0.000000 0.000000
vt 0.000000 0.000000
vt 0.000000 0.000000
vt 0.000000 0.000000
vt 0.000000 0.000000
vt 0.000000 0.000000
vt 0.000000 0.000000
vt 0.000000 0.000000
vn 1.0000 -0.0000 -0.0000
usemtl Material
s off
f 2/1/1 1/2/1 12/3/1 11/4/1 10/5/1 9/6/1 8/7/1 7/8/1 6/9/1 5/10/1 4/11/1 3/12/1
