# Blender v2.80 (sub 43) OBJ File: '1.blend'
# www.blender.org
mtllib player.mtl
o Cube.007_Cube.006
v -0.040602 0.052293 1.218594
v -0.040602 0.194542 1.218594
v -0.040602 0.052293 1.137390
v -0.040602 0.194542 1.137390
v 0.040602 0.052293 1.218594
v 0.040602 0.194542 1.218594
v 0.040602 0.052293 1.137390
v 0.040602 0.194542 1.137390
v -0.040602 0.194542 1.202806
v -0.040602 0.194542 1.121602
v 0.040602 0.194542 1.202806
v 0.040602 0.194542 1.121602
v -0.040602 0.261850 1.202806
v -0.040602 0.261850 1.121602
v 0.040602 0.261850 1.202806
v 0.040602 0.261850 1.121602
vt 0.375000 0.000000
vt 0.625000 0.000000
vt 0.625000 0.250000
vt 0.375000 0.250000
vt 0.625000 0.500000
vt 0.375000 0.500000
vt 0.625000 0.750000
vt 0.375000 0.750000
vt 0.625000 1.000000
vt 0.375000 1.000000
vt 0.125000 0.500000
vt 0.125000 0.750000
vt 0.625000 0.500000
vt 0.625000 0.750000
vt 0.625000 0.250000
vt 0.625000 1.000000
vt 0.625000 0.000000
vt 0.625000 0.000000
vt 0.625000 0.250000
vt 0.625000 0.500000
vt 0.875000 0.500000
vt 0.875000 0.750000
vt 0.625000 0.750000
vt 0.625000 1.000000
vn -1.0000 0.0000 0.0000
vn 0.0000 0.0000 -1.0000
vn 1.0000 0.0000 0.0000
vn 0.0000 0.0000 1.0000
vn 0.0000 -1.0000 0.0000
vn 0.0000 1.0000 0.0000
usemtl None
s off
f 1/1/1 2/2/1 4/3/1 3/4/1
f 3/4/2 4/3/2 8/5/2 7/6/2
f 7/6/3 8/5/3 6/7/3 5/8/3
f 5/8/4 6/7/4 2/9/4 1/10/4
f 3/11/5 7/6/5 5/8/5 1/12/5
f 6/7/4 8/5/4 12/13/4 11/14/4
f 8/5/5 4/3/5 10/15/5 12/13/5
f 2/9/6 6/7/6 11/14/6 9/16/6
f 4/3/4 2/2/4 9/17/4 10/15/4
f 10/15/1 9/17/1 13/18/1 14/19/1
f 16/20/6 14/21/6 13/22/6 15/23/6
f 9/16/4 11/14/4 15/23/4 13/24/4
f 12/13/2 10/15/2 14/19/2 16/20/2
f 11/14/3 12/13/3 16/20/3 15/23/3
